<?xml version="1.0" encoding="UTF-8"?>
<svg id="Layer_1" data-name="Layer 1" xmlns="http://www.w3.org/2000/svg" viewBox="0 0 29.97 29.7">
  <defs>
    <style>
      .cls-1 {
        fill: #7a7a7a;
      }
    </style>
  </defs>
  <path class="cls-1" d="M21.98,6.21c-.84,0-1.52.68-1.52,1.52s.68,1.52,1.52,1.52,1.52-.68,1.52-1.52-.68-1.52-1.52-1.52Z"/>
  <path class="cls-1" d="M15.24,8.15c-3.51,0-6.37,2.86-6.37,6.37s2.86,6.37,6.37,6.37,6.37-2.86,6.37-6.37-2.86-6.37-6.37-6.37ZM15.24,18.59c-2.25,0-4.08-1.83-4.08-4.08s1.83-4.08,4.08-4.08,4.08,1.83,4.08,4.08-1.83,4.08-4.08,4.08Z"/>
  <path class="cls-1" d="M20.3,27.44h-10.32c-4.28,0-7.76-3.48-7.76-7.76v-10.32c0-4.28,3.48-7.76,7.76-7.76h10.32c4.28,0,7.77,3.48,7.77,7.76v10.32c0,4.28-3.48,7.76-7.77,7.76ZM9.98,4.02c-2.94,0-5.33,2.39-5.33,5.33v10.32c0,2.94,2.39,5.33,5.33,5.33h10.32c2.94,0,5.33-2.39,5.33-5.33v-10.32c0-2.94-2.39-5.33-5.33-5.33h-10.32Z"/>
</svg>