<?xml version="1.0" encoding="UTF-8"?>
<svg xmlns="http://www.w3.org/2000/svg" xmlns:xlink="http://www.w3.org/1999/xlink" viewBox="0 0 54.86 59.7">
  <defs>
    <style>
      .cls-1 {
        fill: url(#radial-gradient);
        mix-blend-mode: multiply;
        opacity: .8;
      }

      .cls-2 {
        isolation: isolate;
      }

      .cls-3 {
        fill: #173f75;
      }

      .cls-4 {
        fill: #fff;
      }
    </style>
    <radialGradient id="radial-gradient" cx="28.37" cy="33.22" fx="28.37" fy="33.22" r="26.48" gradientUnits="userSpaceOnUse">
      <stop offset="0" stop-color="#000057"/>
      <stop offset=".39" stop-color="#7474a4" stop-opacity=".54"/>
      <stop offset=".79" stop-color="#d8d8e5" stop-opacity=".15"/>
      <stop offset="1" stop-color="#fff" stop-opacity="0"/>
    </radialGradient>
  </defs>
  <g class="cls-2">
    <g id="Layer_1" data-name="Layer 1">
      <g>
        <circle class="cls-1" cx="28.37" cy="33.22" r="26.48"/>
        <g>
          <circle class="cls-3" cx="21.26" cy="21.26" r="21.26"/>
          <g>
            <path class="cls-4" d="M27.12,14.15c-.72,0-1.3.58-1.3,1.3s.58,1.3,1.3,1.3,1.3-.58,1.3-1.3-.58-1.3-1.3-1.3Z"/>
            <path class="cls-4" d="M21.35,15.81c-3,0-5.45,2.44-5.45,5.45s2.44,5.45,5.45,5.45,5.45-2.44,5.45-5.45-2.44-5.45-5.45-5.45ZM21.35,24.75c-1.92,0-3.49-1.57-3.49-3.49s1.57-3.49,3.49-3.49,3.49,1.57,3.49,3.49-1.57,3.49-3.49,3.49Z"/>
            <path class="cls-4" d="M25.68,32.32h-8.83c-3.66,0-6.65-2.98-6.65-6.65v-8.83c0-3.67,2.98-6.65,6.65-6.65h8.83c3.66,0,6.65,2.98,6.65,6.65v8.83c0,3.66-2.98,6.65-6.65,6.65ZM16.84,12.28c-2.52,0-4.56,2.05-4.56,4.56v8.83c0,2.52,2.05,4.56,4.56,4.56h8.83c2.52,0,4.57-2.05,4.57-4.56v-8.83c0-2.52-2.05-4.56-4.57-4.56h-8.83Z"/>
          </g>
        </g>
      </g>
    </g>
  </g>
</svg>