<?xml version="1.0" encoding="UTF-8"?>
<svg id="Layer_1" data-name="Layer 1" xmlns="http://www.w3.org/2000/svg" viewBox="0 0 42.52 42.52">
  <defs>
    <style>
      .cls-1 {
        fill: #173f75;
      }

      .cls-2 {
        fill: #fff;
      }
    </style>
  </defs>
  <circle class="cls-1" cx="21.26" cy="21.26" r="21.26"/>
  <g>
    <path class="cls-2" d="M27.12,14.15c-.72,0-1.3.58-1.3,1.3s.58,1.3,1.3,1.3,1.3-.58,1.3-1.3-.58-1.3-1.3-1.3Z"/>
    <path class="cls-2" d="M21.35,15.81c-3,0-5.45,2.44-5.45,5.45s2.44,5.45,5.45,5.45,5.45-2.44,5.45-5.45-2.44-5.45-5.45-5.45ZM21.35,24.75c-1.92,0-3.49-1.57-3.49-3.49s1.57-3.49,3.49-3.49,3.49,1.57,3.49,3.49-1.57,3.49-3.49,3.49Z"/>
    <path class="cls-2" d="M25.68,32.32h-8.83c-3.66,0-6.65-2.98-6.65-6.65v-8.83c0-3.67,2.98-6.65,6.65-6.65h8.83c3.66,0,6.65,2.98,6.65,6.65v8.83c0,3.66-2.98,6.65-6.65,6.65ZM16.84,12.28c-2.52,0-4.56,2.05-4.56,4.56v8.83c0,2.52,2.05,4.56,4.56,4.56h8.83c2.52,0,4.57-2.05,4.57-4.56v-8.83c0-2.52-2.05-4.56-4.57-4.56h-8.83Z"/>
  </g>
</svg>