<?xml version="1.0" encoding="UTF-8"?>
<svg id="Layer_1" data-name="Layer 1" xmlns="http://www.w3.org/2000/svg" viewBox="0 0 42.52 42.52">
  <defs>
    <style>
      .cls-1 {
        fill: #173f75;
      }

      .cls-2 {
        fill: #fff;
      }
    </style>
  </defs>
  <circle class="cls-1" cx="21.26" cy="21.26" r="21.26"/>
  <g>
    <path class="cls-2" d="M12.74,16.28h3.66v11.74h-3.66v-11.74ZM14.57,10.45c1.17,0,2.12.95,2.12,2.11s-.95,2.12-2.12,2.12-2.12-.95-2.12-2.12.95-2.11,2.12-2.11"/>
    <path class="cls-2" d="M18.69,16.28h3.5v1.61h.05c.49-.92,1.68-1.9,3.46-1.9,3.7,0,4.38,2.43,4.38,5.59v6.44h-3.65v-5.71c0-1.36-.03-3.11-1.9-3.11s-2.19,1.48-2.19,3.01v5.81h-3.65v-11.74Z"/>
  </g>
</svg>