<?xml version="1.0" encoding="UTF-8"?>
<svg xmlns="http://www.w3.org/2000/svg" xmlns:xlink="http://www.w3.org/1999/xlink" viewBox="0 0 54.86 59.7">
  <defs>
    <style>
      .cls-1 {
        fill: url(#radial-gradient);
        mix-blend-mode: multiply;
        opacity: .8;
      }

      .cls-2 {
        isolation: isolate;
      }

      .cls-3 {
        fill: #173f75;
      }

      .cls-4 {
        fill: #fff;
      }
    </style>
    <radialGradient id="radial-gradient" cx="28.44" cy="31.1" fx="28.44" fy="31.1" r="26.48" gradientUnits="userSpaceOnUse">
      <stop offset="0" stop-color="#000057"/>
      <stop offset=".39" stop-color="#7474a4" stop-opacity=".54"/>
      <stop offset=".79" stop-color="#d8d8e5" stop-opacity=".15"/>
      <stop offset="1" stop-color="#fff" stop-opacity="0"/>
    </radialGradient>
  </defs>
  <g class="cls-2">
    <g id="Layer_1" data-name="Layer 1">
      <g>
        <circle class="cls-1" cx="28.44" cy="31.1" r="26.48"/>
        <g>
          <circle class="cls-3" cx="21.19" cy="21.26" r="21.26"/>
          <g>
            <path class="cls-4" d="M12.67,16.28h3.66v11.74h-3.66v-11.74ZM14.5,10.45c1.17,0,2.12.95,2.12,2.11s-.95,2.12-2.12,2.12-2.12-.95-2.12-2.12.95-2.11,2.12-2.11"/>
            <path class="cls-4" d="M18.62,16.28h3.5v1.61h.05c.49-.92,1.68-1.9,3.46-1.9,3.7,0,4.38,2.43,4.38,5.59v6.44h-3.65v-5.71c0-1.36-.03-3.11-1.9-3.11s-2.19,1.48-2.19,3.01v5.81h-3.65v-11.74Z"/>
          </g>
        </g>
      </g>
    </g>
  </g>
</svg>