<?xml version="1.0" encoding="UTF-8"?>
<svg xmlns="http://www.w3.org/2000/svg" xmlns:xlink="http://www.w3.org/1999/xlink" viewBox="0 0 54.86 59.7">
  <defs>
    <style>
      .cls-1 {
        fill: url(#radial-gradient);
        mix-blend-mode: multiply;
        opacity: .8;
      }

      .cls-2 {
        isolation: isolate;
      }

      .cls-3 {
        fill: #173f75;
      }

      .cls-4 {
        fill: #fff;
      }
    </style>
    <radialGradient id="radial-gradient" cx="28.41" cy="32.16" fx="28.41" fy="32.16" r="26.48" gradientUnits="userSpaceOnUse">
      <stop offset="0" stop-color="#000057"/>
      <stop offset=".39" stop-color="#7474a4" stop-opacity=".54"/>
      <stop offset=".79" stop-color="#d8d8e5" stop-opacity=".15"/>
      <stop offset="1" stop-color="#fff" stop-opacity="0"/>
    </radialGradient>
  </defs>
  <g class="cls-2">
    <g id="Layer_1" data-name="Layer 1">
      <g>
        <circle class="cls-1" cx="28.41" cy="32.16" r="26.48"/>
        <g>
          <circle class="cls-3" cx="21.23" cy="21.26" r="21.26"/>
          <path class="cls-4" d="M31.55,18.56c0-2.5-2.03-4.53-4.53-4.53h-11.59c-2.5,0-4.53,2.03-4.53,4.53v5.39c0,2.5,2.03,4.53,4.53,4.53h11.59c2.5,0,4.53-2.03,4.53-4.53v-5.39ZM24.74,21.66l-5.2,2.57c-.2.11-.9-.04-.9-.27v-5.28c0-.23.7-.38.9-.27l4.97,2.71c.21.12.43.42.22.53Z"/>
        </g>
      </g>
    </g>
  </g>
</svg>